<svg xmlns="http://www.w3.org/2000/svg" viewBox="0 0 200 140" shape-rendering="crispEdges">
  <rect width="200" height="140" fill="#1B1E28"/>

  <!-- grid tileset -->
  <g>
    <rect x="16" y="18" width="36" height="36" fill="#2E6B4C"/>
    <rect x="16" y="18" width="36" height="8" fill="#34C29B"/>
    <rect x="58" y="18" width="36" height="36" fill="#255741"/>
    <rect x="66" y="26" width="6" height="6" fill="#34C29B"/>
    <rect x="82" y="40" width="6" height="6" fill="#34C29B"/>

    <rect x="100" y="18" width="36" height="36" fill="#3a2a1a"/>
    <rect x="100" y="18" width="36" height="10" fill="#5c4530"/>

    <rect x="142" y="18" width="36" height="36" fill="#20263a"/>
    <rect x="150" y="26" width="8" height="8" fill="#6C63F2"/>
    <rect x="164" y="40" width="8" height="8" fill="#6C63F2"/>

    <rect x="16" y="60" width="36" height="36" fill="#2a2a45"/>
    <rect x="16" y="60" width="36" height="6" fill="#3a3a63"/>
    <rect x="58" y="60" width="36" height="36" fill="#5c4530"/>
    <rect x="58" y="60" width="36" height="8" fill="#7a5c3f"/>

    <rect x="100" y="60" width="36" height="36" fill="#255741"/>
    <rect x="108" y="70" width="20" height="16" fill="#2E6B4C"/>

    <rect x="142" y="60" width="36" height="36" fill="#E8A23D"/>
    <rect x="150" y="68" width="20" height="20" fill="#f2c069"/>

    <rect x="16" y="102" width="36" height="20" fill="#20263a"/>
    <rect x="58" y="102" width="36" height="20" fill="#2a2a45"/>
    <rect x="100" y="102" width="36" height="20" fill="#3a2a1a"/>
    <rect x="142" y="102" width="36" height="20" fill="#255741"/>
  </g>
</svg>
